# xmcd CD database file
#
# Track frame offsets:
#	150
#	7555
#	22793
#	35988
#	50179
#	57447
#	68448
#	82158
#	92468
#	103901
#	118833
#	132966
#	142830
#	155175
#	166674
#	177606
#	190620
#	201675
#	212540
#	224635
#
# Disc length: 3186 seconds
#
# Revision: 0
# Processed by: cddbd v1.4PL0 Copyright (c) Steve Scherf et al.
# Submitted via: CDex 1.50
#
DISCID=240c7014
DTITLE=Nat King Cole - Greatest Hits
DYEAR=2001
DGENRE=Jazz
TTITLE0=When You're Smiling
TTITLE1=The Man I Love
TTITLE2=(I Love You) For Sentimental Reasons
TTITLE3=Homeward Bound
TTITLE4=You Stepped Out Of A Dream
TTITLE5=A House With Love In It
TTITLE6=This Way Out
TTITLE7=It's Crazy But I'm In Love
TTITLE8=Katusha
TTITLE9=Call The Police
TTITLE10=Barcarolle
TTITLE11=To The Ends Of The Earth
TTITLE12=Gone With The Draft
TTITLE13=Scotchin' With The Soda
TTITLE14=Jumpin' At Capitol
TTITLE15=You're Nobody Till Somebody Loves You
TTITLE16=Babs
TTITLE17=When I Take My Sugar To Tea
TTITLE18=Stop! The Red Light's On
TTITLE19=Slow Down
EXTD=YEAR: 2001
EXTT0=
EXTT1=
EXTT2=
EXTT3=
EXTT4=
EXTT5=
EXTT6=
EXTT7=
EXTT8=
EXTT9=
EXTT10=
EXTT11=
EXTT12=
EXTT13=
EXTT14=
EXTT15=
EXTT16=
EXTT17=
EXTT18=
EXTT19=
PLAYORDER=
